# xmcd
#
# Track frame offsets: 
#        150
#        10765
#        21355
#        33077
#        43527
#        55480
#        66575
#        78332
#        91350
#        102385
#
# Disc length: 1537 seconds
#
# Revision: 0
# Processed by: cddbd v1.4PL0 Copyright (c) Steve Scherf et al.
# Submitted via: ExactAudioCopy v0.90a11
#
DISCID=7c05ff0a
DTITLE=Arthur Crudup - That's Alright Mama
DYEAR=1900
DGENRE=
TTITLE0=That's Alright Mama
TTITLE1=Look On Younder Wall
TTITLE2=Mean Ol' Frisco
TTITLE3=Ethel Mae
TTITLE4=Too Much Competition
TTITLE5=Rock Me Mama
TTITLE6=Greyhound Bus
TTITLE7=Katie Mae
TTITLE8=Dig Myself A Hole
TTITLE9=So Good You're Mine
EXTD=
EXTT0=
EXTT1=
EXTT2=
EXTT3=
EXTT4=
EXTT5=
EXTT6=
EXTT7=
EXTT8=
EXTT9=
PLAYORDER=
